<?xml version="1.0" encoding="UTF-8" standalone="no"?>
<!-- Created with Inkscape (http://www.inkscape.org/) -->

<svg
   width="210mm"
   height="297mm"
   viewBox="0 0 210 297"
   version="1.1"
   id="svg5"
   inkscape:version="1.2 (1:1.2.1+202207142221+cd75a1ee6d)"
   sodipodi:docname="tracks.svg"
   xmlns:inkscape="http://www.inkscape.org/namespaces/inkscape"
   xmlns:sodipodi="http://sodipodi.sourceforge.net/DTD/sodipodi-0.dtd"
   xmlns="http://www.w3.org/2000/svg"
   xmlns:svg="http://www.w3.org/2000/svg">
  <sodipodi:namedview
     id="namedview7"
     pagecolor="#ffffff"
     bordercolor="#000000"
     borderopacity="0.25"
     inkscape:showpageshadow="2"
     inkscape:pageopacity="0.0"
     inkscape:pagecheckerboard="0"
     inkscape:deskcolor="#d1d1d1"
     inkscape:document-units="mm"
     showgrid="false"
     inkscape:zoom="0.70710678"
     inkscape:cx="463.15494"
     inkscape:cy="473.05443"
     inkscape:window-width="1848"
     inkscape:window-height="1016"
     inkscape:window-x="72"
     inkscape:window-y="27"
     inkscape:window-maximized="1"
     inkscape:current-layer="layer1" />
  <defs
     id="defs2">
    <rect
       x="270.40433"
       y="593.5527"
       width="457.34085"
       height="57.728118"
       id="rect51583" />
    <rect
       x="126.36659"
       y="413.78384"
       width="274.39983"
       height="59.03952"
       id="rect51577" />
    <rect
       x="280.66171"
       y="283.14331"
       width="404.37027"
       height="73.677645"
       id="rect51571" />
    <rect
       x="142.14313"
       y="149.56595"
       width="446.74936"
       height="173.50311"
       id="rect608" />
    <rect
       x="173.30118"
       y="49.647949"
       width="531.72621"
       height="104.83762"
       id="rect113" />
  </defs>
  <g
     inkscape:label="Layer 1"
     inkscape:groupmode="layer"
     id="layer1">
    <rect
       style="fill:#ffffff;stroke:#000000;stroke-width:0.264583;stroke-opacity:1;fill-opacity:1"
       id="rect56816"
       width="186.92274"
       height="171.5359"
       x="11.183093"
       y="6.8609209" />
    <text
       xml:space="preserve"
       transform="scale(0.26458333)"
       id="text111"
       style="font-size:85.3333px;white-space:pre;shape-inside:url(#rect113);display:inline;fill:#000080;stroke:#000000"><tspan
         x="173.30078"
         y="125.14841"
         id="tspan57006">F1 CIRCUITS
</tspan></text>
    <path
       style="fill:none;stroke:#000000;stroke-width:0.264583"
       d="m 77.504045,51.94232 c 0,0 2.220778,-0.43681 3.818272,0.214487 2.816147,1.14814 6.000089,4.669201 11.348038,6.893318 1.070854,0.445349 3.022935,-0.113401 4.202083,0.293947 3.253312,1.12389 6.401362,4.994813 10.754072,6.159801 0.76113,0.203714 3.56203,1.644215 4.33566,1.480137 14.73843,-3.125852 -0.38771,-15.700344 1.15219,-17.439507 2.4681,-2.787473 11.89088,-3.519787 19.73592,-4.318646 5.56134,-0.566311 11.19221,-1.32772 10.54141,0.804685 -0.21135,0.692492 -2.00703,0.918505 -3.19415,2.429567 -0.44588,0.56755 0.43227,3.166353 -0.68818,4.68343 -2.38112,3.223995 -0.90353,4.200458 -0.062,3.355571 2.76713,-2.778126 -0.93362,-6.497366 3.74617,-5.81445 2.95301,0.430929 7.05051,1.835045 7.60791,3.930647 -4.79561,11.392373 -9.63481,14.673311 -17.60714,17.305621 -12.89404,4.014456 -29.29123,3.388173 -34.937869,-2.382404 -1.826067,-1.866145 -1.22251,1.92726 -2.249037,1.46843 -0.832627,-0.372162 -0.162186,0.619327 -2.704094,-0.696005 -1.446046,-0.748269 -0.667602,-2.743133 -2.12398,-3.113707 -6.000461,-1.526812 -8.474211,-8.180468 -14.16834,-5.347161 -3.361709,1.672733 -7.730193,5.232979 -11.033424,8.799145 -0.838782,0.905549 0.910289,3.795133 0.180024,4.676479 -0.955681,1.153399 -2.790887,3.850542 -4.02306,4.678148 -1.381655,0.928008 -3.001417,-1.053316 -3.953128,-1.327781 -0.425642,-0.122752 -10.844446,7.237165 -11.910558,10.938438 -0.154577,0.53665 -0.831065,2.079224 -0.549518,3.332339 0.246022,1.095 1.478728,1.905706 1.087019,2.460161 -0.548582,0.776505 -1.207502,2.869795 -1.904449,3.173643 -0.838218,0.365438 -5.886162,-1.518617 -8.297932,-2.447493 -1.414393,-0.544744 -3.886311,-0.980267 -4.03109,-1.579786 -0.502342,-2.080161 0.443388,-2.578571 2.68547,-2.58061 2.374952,-0.0022 1.266683,-1.898765 1.861951,-2.274347 22.773344,-25.138292 33.733822,-30.930708 38.114703,-33.53532 3.031396,-1.802287 2.267047,-4.220777 2.267047,-4.220777 z"
       id="path227"
       sodipodi:nodetypes="cssssssssssssccsssssssssssssssscscc" />
    <text
       xml:space="preserve"
       transform="scale(0.26458333)"
       id="text606"
       style="font-style:normal;font-variant:normal;font-weight:normal;font-stretch:normal;font-size:33.3333px;font-family:FreeMono;-inkscape-font-specification:FreeMono;white-space:pre;shape-inside:url(#rect608);display:inline;fill:none;stroke:#000000" />
    <text
       xml:space="preserve"
       style="font-style:normal;font-variant:normal;font-weight:normal;font-stretch:normal;font-size:8.46667px;font-family:FreeMono;-inkscape-font-specification:FreeMono;fill:none;stroke:#000000;stroke-width:0.264583"
       x="27.678905"
       y="54.912704"
       id="text664"><tspan
         sodipodi:role="line"
         id="tspan662"
         style="font-size:8.46667px;stroke-width:0.264583"
         x="27.678905"
         y="54.912704">Monaco</tspan></text>
    <rect
       style="fill:#ff0000;stroke:none;stroke-width:0.264583"
       id="rect770"
       width="23.297234"
       height="6.0982418"
       x="27.91563"
       y="58.077885"
       ry="0.52186483" />
    <rect
       style="fill:none;stroke:#000000;stroke-width:0.264583;stroke-opacity:1"
       id="rect1449"
       width="23.059555"
       height="12.020871"
       x="28.12925"
       y="58.169662"
       ry="0.52186483" />
    <path
       style="fill:none;stroke:#000000;stroke-width:0.264583;stroke-opacity:1"
       d="m 43.569971,160.15064 c -6.847472,3.11368 -3.216877,-1.47605 2.61135,-7.13464 2.62686,-2.55041 10.318686,-5.39522 10.318686,-5.39522 4.399789,-4.52394 2.806804,-7.15367 6.405365,-8.36611 1.05728,-0.35622 6.467472,-0.37365 7.696746,-1.86364 7.949128,-9.4599 24.354988,-14.56538 33.288362,-17.18148 11.02039,-3.21826 10.81019,-3.32054 14.3075,-5.45678 5.24674,-3.20483 9.35322,-5.11263 9.66005,-2.49501 0.84686,7.24874 7.67249,-3.52197 10.21834,0.79989 2.78597,4.72948 12.9717,12.29925 8.56511,15.04568 -1.20151,1.10287 -3.64537,-1.03679 -5.78568,-3.76767 -1.6577,-2.11512 -0.25556,-0.35754 -1.7775,-2.39517 -0.83337,-1.4449 -1.86982,-5.53993 -5.69469,-2.86124 -2.66267,1.86476 -6.38768,3.42634 -11.31264,4.41069 -7.09141,1.41737 -9.26952,-0.67161 -9.97321,6.43749 -0.40102,4.0514 2.69715,6.43357 8.04269,6.6932 5.4983,0.26706 0.61244,-0.10443 9.86788,1.23051 4.77731,0.68904 -0.96551,4.85784 2.09757,5.58887 5.74135,1.37024 9.29284,0.13749 7.38567,5.49232 -1.4728,4.13522 0.38473,9.9001 -4.65015,11.89269 -6.85458,2.71273 -14.30147,-7.95656 -18.79981,-12.34755 -4.46523,-4.35867 -12.15402,-7.92317 -16.180444,-7.39551 -3.774338,0.49463 -8.676558,-0.79009 -11.914599,1.4878 -2.985817,2.10046 -13.070028,7.61729 -16.477871,9.47858 -0.413933,0.22608 -1.409758,-0.5728 -1.196411,-1.70344 0.164227,-0.87034 -0.713366,-0.60469 -1.380529,-0.0884 -1.827963,1.41447 -1.974981,1.82058 -3.511677,2.39049 -16.956778,6.28877 -16.059396,5.21556 -21.810108,7.50368 z"
       id="path3629"
       sodipodi:nodetypes="csssccscscscsssssssssssssssc" />
    <text
       xml:space="preserve"
       transform="scale(0.26458333)"
       id="text51569"
       style="font-style:normal;font-variant:normal;font-weight:normal;font-stretch:normal;font-size:24px;font-family:FreeMono;-inkscape-font-specification:FreeMono;white-space:pre;shape-inside:url(#rect51571);display:inline;fill:none;stroke:#000000;stroke-opacity:1"><tspan
         x="280.66211"
         y="305.34258"
         id="tspan57008">Circuit de Monaco</tspan></text>
    <text
       xml:space="preserve"
       transform="scale(0.26458333)"
       id="text51575"
       style="font-style:normal;font-variant:normal;font-weight:normal;font-stretch:normal;font-size:32px;font-family:FreeMono;-inkscape-font-specification:FreeMono;white-space:pre;shape-inside:url(#rect51577);display:inline;fill:none;stroke:#000000;stroke-opacity:1"><tspan
         x="126.36719"
         y="443.3832"
         id="tspan57010">Belgium</tspan></text>
    <text
       xml:space="preserve"
       transform="matrix(0.26458333,0,0,0.26458333,-43.437473,6.1757697)"
       id="text51581"
       style="font-style:normal;font-variant:normal;font-weight:normal;font-stretch:normal;font-size:24px;font-family:FreeMono;-inkscape-font-specification:FreeMono;white-space:pre;shape-inside:url(#rect51583);display:inline;fill:none;stroke:#000000;stroke-opacity:1"><tspan
         x="270.4043"
         y="615.75273"
         id="tspan57012">Circuit de Spa-Francorchamps</tspan></text>
    <rect
       style="fill:#000000;stroke:#000000;stroke-width:0.264583;stroke-opacity:1"
       id="rect53039"
       width="10.341633"
       height="17.811623"
       x="20.433197"
       y="120.17898"
       ry="0.52186483"
       rx="0" />
    <rect
       style="fill:#ffff00;stroke:none;stroke-width:0.266359;stroke-opacity:1"
       id="rect53819"
       width="10.085669"
       height="18.078348"
       x="29.496782"
       y="120.03851"
       ry="0.5288974"
       rx="0" />
    <rect
       style="fill:#ffff00;stroke:none;stroke-width:0.264583;stroke-opacity:1"
       id="rect53821"
       width="0"
       height="1.9094008"
       x="31.567116"
       y="118.25262"
       ry="0.027170049" />
    <rect
       style="fill:#ff0000;stroke:none;stroke-width:0.259534;stroke-opacity:1"
       id="rect53823"
       width="9.955617"
       height="18.132668"
       x="39.576977"
       y="120.05296"
       ry="0.52822113"
       rx="0" />
    <rect
       style="fill:none;stroke:#000000;stroke-width:0.263376;stroke-opacity:1"
       id="rect53825"
       width="29.277523"
       height="18.212589"
       x="20.300917"
       y="119.999"
       ry="0" />
  </g>
</svg>
