<?xml version="1.0" encoding="UTF-8" standalone="no"?>
<!-- Created with Inkscape (http://www.inkscape.org/) -->

<svg
   width="210mm"
   height="297mm"
   viewBox="0 0 210 297"
   version="1.1"
   id="svg5"
   inkscape:version="1.2 (1:1.2.1+202207142221+cd75a1ee6d)"
   sodipodi:docname="circuito.svg"
   xmlns:inkscape="http://www.inkscape.org/namespaces/inkscape"
   xmlns:sodipodi="http://sodipodi.sourceforge.net/DTD/sodipodi-0.dtd"
   xmlns="http://www.w3.org/2000/svg"
   xmlns:svg="http://www.w3.org/2000/svg">
  <sodipodi:namedview
     id="namedview7"
     pagecolor="#ffffff"
     bordercolor="#000000"
     borderopacity="0.25"
     inkscape:showpageshadow="2"
     inkscape:pageopacity="0.0"
     inkscape:pagecheckerboard="0"
     inkscape:deskcolor="#d1d1d1"
     inkscape:document-units="mm"
     showgrid="false"
     inkscape:zoom="0.70710678"
     inkscape:cx="682.35804"
     inkscape:cy="516.89505"
     inkscape:window-width="1848"
     inkscape:window-height="1016"
     inkscape:window-x="72"
     inkscape:window-y="27"
     inkscape:window-maximized="1"
     inkscape:current-layer="layer1" />
  <defs
     id="defs2">
    <rect
       x="47.575443"
       y="94.791198"
       width="207.48825"
       height="91.940597"
       id="rect4378" />
    <inkscape:perspective
       sodipodi:type="inkscape:persp3d"
       inkscape:vp_x="0 : 148.5 : 1"
       inkscape:vp_y="0 : 1000 : 0"
       inkscape:vp_z="210 : 148.5 : 1"
       inkscape:persp3d-origin="105 : 99 : 1"
       id="perspective310" />
  </defs>
  <g
     inkscape:label="Layer 1"
     inkscape:groupmode="layer"
     id="layer1">
    <path
       style="fill:#c8b7b7;stroke:#000000;stroke-width:0.922573"
       d="m 98.401301,133.9153 -38.24933,-2.15334 c 0,0 0.860575,-17.60082 -3.051075,-19.69728 -3.911652,-2.09646 -3.707772,-16.935873 -3.707772,-16.935873 L 52.990239,63.70801 c 0,0 -3.739915,-27.703491 17.203887,-24.110635 20.943793,3.59285 -2.641988,19.881193 -2.641988,19.881193 L 67.352942,79.30349 c 0,0 -0.01448,13.656508 0.161582,13.903967 0.176187,0.24746 -2.375671,14.287173 8.934656,4.050661 l 13.389054,0.644397 c 0,0 10.121691,9.456575 6.835381,-3.222705 -3.286309,-12.679278 -4.468511,1.765219 -3.281464,-18.427177 1.18705,-20.192396 0.907555,-22.594921 0.907555,-22.594921 0,0 -3.869376,-51.6695822 5.14779,-15.200561 9.017164,36.46902 2.445544,-30.1118952 14.933934,-14.357799 12.4884,15.754097 7.83695,64.009353 7.83695,64.009353 L 121.634,131.47163 c 0,0 -2.389,67.95329 -5.3516,12.8657 C 113.3198,89.249727 118.34793,27.051153 113.3198,89.640623 108.29166,152.23009 98.401301,133.9153 98.401301,133.9153 Z"
       id="path3473"
       sodipodi:nodetypes="ccsccscccc" />
    <path
       style="fill:#c8b7b7;stroke:#000000;stroke-width:0.922573"
       d="m 138.47219,34.242269 c 1.88579,0.911403 12.90462,3.277525 17.53058,10.114933 0.37485,0.55401 0.72249,1.337985 0.93294,2.297975 1.75802,8.018945 -0.62294,15.874548 -2.4722,21.873438 -0.73129,2.372247 -1.47255,4.725124 -2.19207,7.120248 -0.52379,1.743605 -0.91864,3.73254 -1.48342,5.392388 -0.0199,0.05876 -2.12262,5.350336 -2.26624,5.746736 -0.91268,2.519132 -1.7031,4.877076 -2.78693,6.997734 -0.30842,0.603452 -0.62852,1.180979 -0.9736,1.640447 -0.57478,0.765327 -1.19075,1.315629 -1.77719,2.022228 -0.44494,0.536106 -0.85996,1.23168 -1.31595,1.704746 -0.34926,0.362318 -0.73025,0.489817 -1.08864,0.789861 -0.78164,0.654377 -1.0198,1.332417 -1.67876,2.273927 -0.10607,0.1515 -0.24938,0.0932 -0.34974,0.26763 -0.14917,0.25927 -0.10257,0.9994 -0.10257,1.30845 0,1.0836 -0.0794,1.11821 0.22353,1.94826 0.39564,1.08392 0.77991,2.21176 1.234,3.13782 1.31207,2.67575 3.14366,4.38487 4.62881,6.2691 1.65993,2.10599 4.01394,5.53034 5.80174,6.63576 0.7482,0.4626 1.52107,0.61823 2.28368,0.89191 0.71389,0.25621 1.41892,0.52551 2.14136,0.37817 0.66634,-0.13593 1.38113,-0.66671 1.94478,-1.61291 0.24368,-0.40905 0.34986,-1.17424 0.548,-1.67189 0.0974,-0.24452 0.23836,-0.35051 0.34398,-0.57203 0.57373,-1.2031 0.14998,-0.45495 0.55802,-1.6849 0.32921,-0.99226 0.48353,-1.07631 0.9062,-1.96405 0.21929,-0.46055 0.38836,-1.17969 0.62501,-1.57965 0.32238,-0.54492 0.80725,-0.12772 1.18562,-0.78485 0.65421,-1.13617 1.51015,-2.46195 2.00599,-4.09628 0.15834,-0.52191 0.25554,-1.14763 0.40164,-1.69188 0.41722,-1.55431 0.77304,-2.80636 0.9301,-4.7215 0.0413,-0.50267 0,-1.02678 0,-1.54017 0,-3.362762 -0.0152,-5.35264 -0.7653,-8.295872 -0.41447,-1.626072 -0.9189,-3.09408 -1.36815,-4.660016 -0.74252,-2.58812 -1.48153,-4.459223 -0.51671,-7.359544 0.85662,-2.575108 2.20683,-2.858932 3.43097,-3.581308 0.35676,-0.21054 0.70004,-0.552347 1.05678,-0.763115 0.76078,-0.449517 1.60124,-0.424018 2.34438,-1.05067 0.36365,-0.306663 0.7019,-0.781679 1.06,-1.127567 0.88945,-0.859161 1.65603,-1.488596 1.94995,-4.00929 0.31153,-2.671803 0.25674,-6.583822 -0.27877,-9.038866 -0.70806,-2.495494 -0.89261,-2.946862 -1.44388,-5.668712 -1.46742,-7.245264 -2.70126,-13.902442 -4.6293,-20.417855 -0.37709,-1.27427 -0.69814,-2.739617 -1.20069,-3.751054 -0.66832,-1.345101 -2.75431,-3.888056 -3.56583,-4.525125 -1.44212,-1.132092 -1.44837,-0.653901 -2.86136,-1.298458 -1.35562,-0.618383 -2.80619,-1.336579 -4.15395,-2.026405 -0.45307,-0.23189 -0.8903,-0.644853 -1.34538,-0.850084 -1.14777,-0.517635 -2.33413,-0.561714 -3.47679,-1.2024 -0.37461,-0.210044 -0.73,-0.614353 -1.10625,-0.80477 -0.71129,-0.359972 -1.44091,-0.448621 -2.15375,-0.788399 -0.6178,-0.294469 -1.22189,-0.766705 -1.84297,-1.013004 -0.16422,-0.06512 -0.33575,0.08364 -0.49863,0 -0.28941,-0.148606 -0.55707,-0.502007 -0.84297,-0.688914 -0.70117,-0.458376 -1.67532,-1.060172 -2.3965,-1.246547 -1.41003,-0.364398 -2.45448,0.495933 -3.78788,1.606481 -1.18468,0.986683 -0.73954,0.295383 -1.70476,1.416885 -0.97676,1.134927 -1.7979,2.656056 -2.72997,3.999352 -0.2809,0.404853 -0.62381,0.554613 -0.87014,1.084075 -0.14547,0.312644 -0.14406,0.898662 -0.24384,1.310152 -0.11201,0.461924 -0.24851,0.884777 -0.38808,1.295949 -0.87338,2.572774 -1.09763,3.18812 -1.3247,6.612148 -0.0758,1.14385 -0.19062,1.838603 4e-5,2.951088 0.20578,1.200829 0.65468,2.112625 0.97805,3.090387 0.8796,2.659535 -0.11741,0.331553 0.726,1.488757 0.25923,0.655212 14.76798,4.745635 8.13719,-6.937661"
       id="path4316"
       sodipodi:nodetypes="cssssssssssssssssssssssssssssssssssssssscssssssssssssssssssssssscc" />
    <path
       style="fill:#c8b7b7;stroke:#000000;stroke-width:0.922573"
       d="m 130.1992,61.516169 c 1.03772,6.104636 11.55623,51.515371 10.62272,10.802393 -0.071,-3.095305 -1.68964,4.49648 -2.54687,6.714341 -2.37894,6.15486 -1.53395,3.599543 -4.2995,10.909 -1.14927,3.037558 -1.29596,3.778937 -2.34644,6.67096 -0.47751,1.314586 -1.05086,2.436095 -1.50444,3.802337 -0.86611,2.60889 -1.67934,5.13862 -2.3281,8.13913 -0.0685,0.3168 -0.55598,2.28041 -0.60566,2.75084 -0.0402,0.38089 0.0178,0.79098 0,1.18264 -0.0274,0.60605 -0.23861,2.61434 -0.21124,3.16243 0.0918,1.8362 0.34845,3.96481 0.68278,5.65479"
       id="path4318"
       sodipodi:nodetypes="cssssssscsc" />
    <path
       style="fill:#c8b7b7;stroke:#000000;stroke-width:0.922573"
       d="m 137.47683,149.70982 c 18.34805,14.20354 -0.85615,0.53521 10.20077,6.10443 6.87739,4.76524 2.04423,1.81064 7.4713,4.40906 0.52545,0.25156 1.04411,0.58643 1.56616,0.87966 0.70008,0.32256 1.40013,0.6456 2.10023,0.96777 1.44578,0.66529 2.90757,1.13677 4.33751,1.99326 1.53451,0.91912 3.02439,2.26242 4.54096,3.35532 0.60821,0.43832 1.24555,0.62936 1.83837,1.18623 0.47833,0.34458 0.86252,1.2332 1.32427,1.6735 0.14964,0.14269 0.31774,0.14053 0.4651,0.29753 0.16553,0.17632 1.09231,1.51672 1.13134,1.70649 0.0456,0.22197 0.014,0.5028 0,0.7504 -0.17531,3.09057 -0.0527,1.68696 -1.30602,4.45618 -5.21276,11.51812 2.76241,-5.64607 -4.74062,8.97282 -7.65908,14.92292 -1.54614,4.72332 -7.83381,15.36941 -0.82285,1.39323 -1.60169,3.00542 -2.50073,4.05569 -0.91726,1.07154 -1.93889,1.44473 -2.89774,2.25079 -0.075,0.0631 -4.52909,4.18239 -4.60018,4.22797 -0.59042,0.37856 -1.20963,0.36603 -1.81534,0.52835 -2.2771,0.61002 -1.44939,0.43604 -3.93032,0.43604 -1.02103,0 -2.04501,0.19575 -3.06311,0 -1.81382,-0.34868 -5.27473,-2.10249 -6.82928,-4.10978 -2.0262,-2.61631 -5.24511,-7.69483 -6.32077,-12.9236 -1.48838,-7.23495 -2.06506,-16.49646 -2.34997,-24.38564 -0.0819,-2.26743 0.0354,-4.55546 0,-6.83054 -0.0299,-1.9187 -0.29936,-3.83683 -0.19606,-5.73917 0.0639,-1.17491 0.4808,-2.04198 0.67713,-3.11909 0.19183,-1.05237 0.35608,-2.14093 0.48439,-3.2533 0.15101,-1.30922 0.20678,-2.67979 0.35149,-3.99355 0.35024,-3.17934 1.27551,-4.98775 2.19193,-7.25892 0.29206,-0.72382 0.54401,-1.58476 0.89069,-2.13345 0.4785,-0.75735 1.0384,-1.12249 1.5495,-1.72871 0.47522,-0.56371 0.92289,-1.27688 1.40863,-1.78011 0.36775,-0.381 0.76639,-0.53766 1.14243,-0.8629 0.57028,-0.49314 1.14895,-0.92393 1.71639,-1.43755 1.89228,-1.71281 -1.48814,0.56999 1.41903,-1.41089 0.62518,-0.42601 1.26363,-0.7233 1.88664,-1.1692 0.54763,-0.39191 2.19368,-2.41139 2.80367,-1.86605 0.67374,0.60233 0.26488,0.33494 0.97603,1.44161 0.10268,0.15976 0.22577,0.21392 0.33866,0.32085 0.15502,0.19591 0.31796,0.35605 0.46504,0.58769 0.35234,0.5549 0.9832,1.89881 1.37509,2.19853 1.86209,1.4242 2.20858,1.84189 3.63103,1.84189"
       id="path4320" />
    <text
       xml:space="preserve"
       transform="scale(0.26458333)"
       id="text4376"
       style="white-space:pre;shape-inside:url(#rect4378);fill:#c8b7b7;stroke:#000000" />
    <ellipse
       style="fill:#000080;stroke:#000000;stroke-width:0.922573"
       id="path4484"
       cx="79.579605"
       cy="80.554832"
       rx="4.328011"
       ry="7.1396527" />
    <ellipse
       style="fill:#f4d7d7;stroke:#000000;stroke-width:0.922573"
       id="path4538"
       cx="88.855682"
       cy="54.411598"
       rx="4.102088"
       ry="18.388798" />
    <ellipse
       style="fill:#ff2a2a;stroke:#000000;stroke-width:0.922573"
       id="path4592"
       cx="185.03378"
       cy="96.474892"
       rx="9.2899504"
       ry="27.071447" />
    <path
       style="fill:#ff2a2a;stroke:#000000;stroke-width:0.922573"
       d="M 43.170101,12.499826 C 72.238146,11.986628 89.443955,7.0000236 89.443955,7.0000236 l 20.688715,-2.2471497 10.78836,4.4943992 c 0,0 21.1172,10.2786329 -6.86587,7.1419079 -27.983078,-3.136724 -29.627463,0.740836 -29.627463,0.740836 0,0 -10.032862,0.711004 -12.008515,2.026685 -1.975651,1.315679 -29.433262,13.810285 -30.531601,15.087101 -1.098332,1.276818 -6.802413,2.923042 -7.275153,10.162557 -0.472739,7.239516 -1.294517,12.736321 -1.294517,19.826935 0,7.090613 -1.105202,-1.824522 -0.179237,18.668511 0.92596,20.493024 1.047222,29.984844 2.051427,41.498524 1.0042,11.51368 -21.502913,-12.20543 2.510139,21.92541 24.013051,34.13081 25.367454,32.82303 28.910014,39.93384 3.542567,7.1108 12.829078,13.22259 13.809951,12.48924 0.980865,-0.73336 3.943562,-11.81666 3.943562,-11.81666 0,0 1.216187,-8.84785 1.216187,-14.50244 0,-5.6546 -23.0415,-72.30544 0.580313,-13.82069 23.621813,58.48476 27.889613,59.02657 27.889613,59.02657 0,0 -0.36886,3.22731 -3.6493,8.41115 -3.28044,5.18386 -2.84623,7.60768 -8.73753,10.29255 -5.891296,2.68483 -0.58376,-0.0939 -15.600094,3.21938 C 71.046618,242.872 75.869107,250.19405 62.623771,243.53025 49.378438,236.86645 61.587365,337.01688 39.341582,226.8477 17.095797,116.67851 19.366116,90.506181 19.844636,75.733468 c 0.478521,-14.772724 0.950951,-23.900883 1.248363,-28.742957 0.297412,-4.842075 0.486495,-5.489948 1.099183,-10.333231 0.612689,-4.843281 -9.846147,-5.702553 4.88774,-14.653496 14.733885,-8.950947 16.090179,-9.503958 16.090179,-9.503958 z"
       id="path4858" />
    <path
       style="fill:#ff2a2a;stroke:#000000;stroke-width:0.922573"
       d="m 41.350893,122.93969 15.169939,31.55519 c 0,0 12.500518,3.74888 -2.491469,-26.75148 -14.991988,-30.500377 -12.67847,-4.80371 -12.67847,-4.80371 z"
       id="path4860" />
    <path
       style="fill:#ff2a2a;stroke:#000000;stroke-width:0.922573"
       d="m 82.166194,106.85036 c -7.148429,12.03467 19.152656,15.04313 -7.231123,12.03467 -26.38378,-3.00847 7.231123,-12.03467 7.231123,-12.03467 z"
       id="path4862" />
  </g>
</svg>
